<?xml version="1.0" standalone="no"?>
<!DOCTYPE svg PUBLIC "-//W3C//DTD SVG 20010904//EN"
 "http://www.w3.org/TR/2001/REC-SVG-20010904/DTD/svg10.dtd">
<svg version="1.0" xmlns="http://www.w3.org/2000/svg"
 width="49.000000pt" height="32.000000pt" viewBox="0 0 49.000000 32.000000"
 preserveAspectRatio="xMidYMid meet">
<metadata>
Created by potrace 1.10, written by Peter Selinger 2001-2011
</metadata>
<g transform="translate(0.000000,32.000000) scale(0.100000,-0.100000)"
fill="#000000" stroke="none">
<path d="M258 313 c-23 -6 -34 -51 -19 -75 19 -30 6 -32 -22 -4 -15 14 -33 26
-42 26 -18 0 -55 -35 -55 -53 0 -24 31 -57 55 -57 24 0 55 23 55 41 0 20 37 8
48 -16 14 -30 -4 -47 -23 -21 -11 14 -14 14 -25 2 -28 -35 33 -51 64 -17 11
13 15 27 11 40 -4 12 -2 21 4 21 6 0 11 -7 11 -15 0 -16 30 -35 54 -35 42 0
60 64 26 95 -24 22 -70 13 -77 -15 -3 -11 -11 -20 -18 -20 -15 0 -55 51 -55
69 0 15 27 14 33 -1 4 -10 7 -10 17 -1 11 10 11 15 0 28 -7 8 -15 14 -19 14
-3 -1 -14 -3 -23 -6z m-67 -89 c11 -13 10 -15 -3 -12 -9 1 -16 -1 -15 -7 1 -5
10 -9 20 -8 9 2 17 -4 17 -12 0 -24 -38 -17 -56 10 -25 38 7 65 37 29z m191
-1 c24 -21 24 -53 -1 -53 -10 0 -25 7 -32 16 -12 15 -11 16 10 9 17 -5 22 -4
19 6 -3 8 -15 13 -26 11 -21 -3 -29 8 -15 21 11 11 25 8 45 -10z"/>
<path d="M11 262 c-9 -18 -6 -19 42 -14 l51 5 -53 -59 -53 -59 59 -53 c61 -57
116 -87 136 -76 7 4 20 14 31 23 13 12 39 16 95 16 65 1 84 5 124 28 26 15 47
33 47 39 0 6 -9 3 -19 -6 -43 -39 -161 -62 -161 -31 0 7 8 19 18 24 14 8 10
10 -21 11 -34 0 -37 -2 -27 -19 5 -11 10 -22 10 -25 0 -11 -49 2 -65 17 -9 9
-22 17 -29 17 -17 0 -48 -35 -39 -43 11 -12 23 -8 23 9 0 26 25 9 28 -19 2
-18 -1 -27 -11 -27 -18 0 -83 48 -126 93 l-33 35 20 29 c11 15 32 39 46 52 41
39 34 51 -29 51 -43 0 -56 -4 -64 -18z"/>
</g>
</svg>
